<svg id="svg" version="1.1" xmlns="http://www.w3.org/2000/svg" xmlns:xlink="http://www.w3.org/1999/xlink" width="60" height="60.7972027972028" viewBox="0, 0, 400,402.7972027972028"><g id="svgg"><path id="path0" d="M211.563 120.068 C 209.933 121.206,208.510 122.250,208.400 122.389 C 208.290 122.528,207.480 123.168,206.600 123.810 C 187.870 137.474,167.405 158.071,157.527 173.200 C 143.366 194.886,148.446 208.010,171.566 209.467 L 175.732 209.730 174.566 210.661 C 168.952 215.145,157.258 218.798,148.515 218.799 C 119.499 218.803,111.644 187.416,133.351 158.200 C 136.091 154.513,135.278 154.940,132.208 158.800 C 125.292 167.496,121.234 175.585,118.763 185.600 C 115.772 197.729,119.988 212.920,127.700 217.796 C 128.305 218.179,128.800 218.650,128.800 218.844 C 128.800 219.043,112.334 219.240,90.801 219.298 L 52.803 219.400 57.572 226.400 C 60.194 230.250,64.270 236.237,66.628 239.704 L 70.917 246.008 68.300 249.904 C 66.860 252.047,64.013 256.230,61.972 259.200 C 54.340 270.308,52.831 272.564,52.953 272.687 C 53.022 272.756,71.016 272.810,92.939 272.808 C 114.863 272.806,132.800 272.958,132.800 273.146 C 132.800 273.481,127.214 274.604,119.600 275.799 C 110.290 277.261,99.722 276.944,92.148 274.976 C 87.595 273.793,86.720 273.906,90.894 275.137 C 102.463 278.551,113.700 278.617,130.938 275.373 C 133.764 274.841,136.914 274.089,137.938 273.703 C 140.022 272.916,196.800 272.373,196.800 273.139 C 196.800 273.540,191.754 277.883,186.100 282.349 C 184.065 283.956,182.400 285.344,182.400 285.434 C 182.400 285.814,194.739 276.665,197.914 273.931 L 199.228 272.800 273.614 272.800 C 314.526 272.800,348.000 272.707,348.000 272.593 C 348.000 272.479,345.883 269.284,343.295 265.493 C 340.708 261.702,338.323 258.205,337.995 257.722 C 337.668 257.240,335.740 254.418,333.711 251.452 L 330.023 246.060 331.739 243.530 C 332.683 242.138,335.408 238.120,337.795 234.600 C 340.181 231.080,343.454 226.268,345.067 223.906 C 346.680 221.544,348.000 219.519,348.000 219.406 C 348.000 219.293,332.319 219.200,313.153 219.200 L 278.307 219.200 278.558 218.100 C 282.028 202.914,276.585 188.524,265.207 182.803 C 252.598 176.464,230.361 177.473,215.500 185.059 C 213.867 185.892,214.032 184.878,216.222 180.623 C 223.181 167.098,235.947 159.097,253.676 157.149 C 263.729 156.044,278.906 157.674,290.000 161.051 C 302.312 164.799,310.364 168.306,317.600 173.071 C 319.030 174.013,320.650 175.077,321.200 175.436 C 321.750 175.795,321.300 175.252,320.200 174.230 C 310.769 165.469,291.006 157.205,274.200 154.997 C 241.879 150.749,215.078 161.418,199.150 184.873 C 197.331 187.552,197.099 187.535,195.377 184.597 C 181.887 161.578,259.000 119.642,300.700 127.319 C 304.686 128.053,305.882 128.144,304.579 127.617 C 297.137 124.603,277.540 125.248,261.684 129.030 C 214.199 140.356,176.733 171.549,181.434 195.843 C 181.726 197.355,181.319 197.475,174.641 197.857 C 148.616 199.343,149.456 182.746,176.931 152.600 C 186.395 142.216,201.915 128.060,213.853 118.922 C 216.049 117.242,214.506 118.014,211.563 120.068 M255.528 185.019 C 270.225 188.405,278.385 201.364,275.853 217.300 L 275.551 219.200 260.775 219.200 C 249.219 219.200,246.001 219.091,246.005 218.700 C 246.008 218.425,246.386 217.030,246.845 215.600 C 250.799 203.274,243.497 195.477,226.646 194.032 C 220.978 193.546,221.125 193.635,223.500 192.131 C 234.470 185.186,245.561 182.723,255.528 185.019 M233.659 206.332 C 239.589 207.978,241.820 210.891,241.524 216.600 L 241.400 219.000 228.454 219.106 L 215.508 219.211 215.768 217.906 C 216.357 214.953,216.485 209.670,216.003 208.211 C 215.358 206.256,215.572 206.112,219.800 205.649 C 224.544 205.129,230.361 205.416,233.659 206.332 M201.171 217.454 C 202.373 218.982,202.226 219.200,200.000 219.200 C 198.900 219.200,198.000 219.044,198.000 218.854 C 198.000 218.356,199.594 216.400,200.000 216.400 C 200.188 216.400,200.715 216.874,201.171 217.454 M183.102 218.500 C 182.904 219.100,181.200 219.424,181.200 218.861 C 181.200 218.440,181.860 218.083,182.733 218.032 C 183.027 218.014,183.193 218.225,183.102 218.500 M141.365 224.743 C 141.574 225.082,141.067 229.667,138.767 248.200 C 137.194 260.876,137.617 259.600,134.992 259.600 C 132.398 259.600,132.537 260.352,133.588 252.000 C 134.693 243.223,135.093 239.945,136.023 232.027 C 136.474 228.192,136.934 224.907,137.045 224.727 C 137.314 224.292,141.094 224.305,141.365 224.743 M298.200 227.100 C 298.055 228.585,297.398 234.030,296.739 239.200 C 296.080 244.370,295.298 250.918,295.000 253.751 C 294.378 259.667,294.365 259.690,291.756 259.524 C 290.080 259.418,289.810 259.286,289.869 258.600 C 290.315 253.457,291.031 247.030,291.986 239.600 C 292.622 234.650,293.264 229.340,293.412 227.800 C 293.752 224.265,293.639 224.400,296.255 224.400 L 298.464 224.400 298.200 227.100 M102.461 226.261 C 105.728 227.725,107.114 229.266,106.386 230.626 C 105.528 232.230,104.585 232.556,103.085 231.770 C 102.378 231.399,101.080 230.719,100.200 230.259 C 96.463 228.303,90.211 229.699,87.053 233.194 C 80.514 240.432,82.536 254.272,90.304 255.436 C 96.681 256.393,99.651 254.908,100.227 250.473 C 100.728 246.622,100.825 246.802,98.233 246.794 C 95.457 246.786,95.111 246.498,95.436 244.467 L 95.702 242.800 100.464 242.800 C 106.196 242.800,105.875 242.358,105.029 249.083 C 104.044 256.918,104.332 256.283,101.060 257.825 C 86.908 264.490,74.864 254.493,78.651 239.226 C 81.431 228.021,92.696 221.887,102.461 226.261 M245.578 225.865 C 249.144 227.313,250.152 228.790,248.771 230.546 C 247.722 231.880,246.712 231.878,244.956 230.540 C 240.942 227.477,235.206 229.934,235.201 234.718 C 235.199 237.032,236.110 237.863,240.785 239.818 C 246.940 242.390,248.577 244.741,247.807 249.900 C 246.379 259.472,234.074 263.366,227.370 256.368 L 226.281 255.232 227.361 253.816 C 228.652 252.123,229.873 251.987,231.191 253.390 C 235.214 257.672,242.556 255.367,243.105 249.648 C 243.361 246.981,242.206 245.800,237.599 244.024 C 231.962 241.850,230.400 240.080,230.400 235.866 C 230.400 227.958,238.152 222.850,245.578 225.865 M259.866 230.100 C 259.728 231.475,259.499 233.275,259.356 234.100 L 259.095 235.600 262.171 235.600 L 265.246 235.600 265.123 237.300 L 265.000 239.000 261.900 239.117 C 260.195 239.181,258.800 239.346,258.800 239.482 C 258.800 239.619,258.427 242.657,257.972 246.232 C 256.796 255.468,257.312 257.067,260.855 255.171 C 261.846 254.640,263.200 255.795,263.200 257.171 C 263.200 258.985,257.540 260.579,255.141 259.440 C 252.350 258.116,251.896 255.830,252.971 248.497 C 253.286 246.354,253.667 243.385,253.818 241.900 L 254.093 239.200 252.634 239.200 C 249.827 239.200,250.105 236.255,252.953 235.828 C 254.659 235.572,254.728 235.505,255.173 233.682 C 256.653 227.611,256.659 227.600,258.469 227.600 L 260.116 227.600 259.866 230.100 M128.800 235.759 C 129.350 236.019,129.764 236.495,129.719 236.816 C 129.675 237.137,129.264 240.730,128.806 244.800 C 128.349 248.870,127.755 253.820,127.487 255.800 L 127.000 259.400 125.326 259.522 C 123.238 259.674,122.601 258.778,123.016 256.270 L 123.291 254.600 121.386 256.521 C 111.710 266.273,103.402 252.363,112.050 240.891 C 115.840 235.863,123.837 233.413,128.800 235.759 M161.200 235.226 C 164.678 235.788,164.539 235.229,163.431 244.227 C 162.890 248.612,162.323 253.460,162.171 255.000 C 161.773 259.029,161.490 259.600,159.890 259.600 C 158.074 259.600,157.600 258.985,157.600 256.629 L 157.600 254.618 156.371 256.109 C 150.540 263.182,143.400 260.365,143.400 250.991 C 143.400 240.465,151.149 233.602,161.200 235.226 M316.769 235.903 C 324.383 239.641,318.514 247.733,307.500 248.683 L 304.800 248.916 304.800 250.478 C 304.800 255.735,310.085 257.573,315.017 254.031 C 317.972 251.909,320.552 253.545,318.170 256.031 C 312.337 262.120,302.692 260.692,300.589 253.429 C 297.489 242.727,307.838 231.517,316.769 235.903 M173.047 235.506 C 173.294 235.668,174.284 237.462,175.247 239.494 C 177.341 243.905,176.991 243.821,179.423 240.503 C 183.165 235.399,183.406 235.200,185.841 235.200 C 188.602 235.200,188.665 234.989,184.156 240.825 C 182.041 243.561,180.230 246.003,180.131 246.252 C 180.032 246.501,181.298 249.467,182.943 252.843 C 186.296 259.722,186.284 259.600,183.605 259.600 C 181.145 259.600,180.970 259.412,178.592 254.243 C 176.250 249.153,176.792 249.210,173.430 253.700 C 169.051 259.549,168.991 259.600,166.525 259.600 C 163.771 259.600,163.684 259.851,168.849 252.953 C 171.295 249.685,173.377 246.803,173.475 246.548 C 173.573 246.293,172.471 243.826,171.027 241.066 C 169.582 238.305,168.400 235.856,168.400 235.623 C 168.400 235.144,172.345 235.045,173.047 235.506 M193.875 235.700 C 194.284 236.249,195.420 240.263,197.046 246.900 C 197.625 249.265,198.247 251.200,198.428 251.200 C 198.609 251.200,200.489 247.738,202.605 243.507 C 206.888 234.944,206.670 235.215,209.300 235.206 C 211.674 235.198,211.674 235.189,209.043 240.141 C 206.708 244.533,204.221 249.303,198.897 259.600 C 194.765 267.591,194.758 267.600,192.562 267.600 C 190.103 267.600,190.118 267.336,192.856 262.363 L 195.327 257.873 194.454 254.637 C 193.693 251.814,191.509 243.945,189.790 237.832 C 189.486 236.750,189.329 235.715,189.442 235.532 C 189.768 235.005,193.461 235.145,193.875 235.700 M271.917 235.540 C 272.201 235.720,273.292 239.313,274.340 243.524 C 275.389 247.735,276.340 251.273,276.454 251.387 C 276.567 251.500,278.248 248.400,280.189 244.497 C 284.874 235.073,284.778 235.200,287.227 235.200 C 289.375 235.200,289.761 235.794,288.666 237.411 C 288.081 238.275,284.846 244.450,278.197 257.400 C 275.824 262.020,273.518 266.205,273.072 266.700 C 271.715 268.205,267.489 267.799,268.724 266.282 C 268.941 266.017,270.112 263.975,271.327 261.744 L 273.536 257.688 272.412 253.744 C 269.699 244.227,268.032 238.092,267.781 236.700 L 267.511 235.200 269.455 235.206 C 270.525 235.209,271.633 235.360,271.917 235.540 M120.651 238.987 C 114.902 241.037,110.962 251.017,114.431 254.741 C 117.706 258.257,123.319 251.649,124.344 243.072 C 124.948 238.010,124.569 237.591,120.651 238.987 M155.706 238.846 C 150.092 240.468,145.911 249.284,148.460 254.126 C 151.401 259.713,158.101 251.807,158.992 241.700 L 159.283 238.400 158.142 238.436 C 157.514 238.456,156.418 238.640,155.706 238.846 M310.400 238.848 C 308.357 239.661,305.600 243.205,305.600 245.019 C 305.600 246.222,312.900 244.397,314.644 242.758 C 317.247 240.313,314.073 237.388,310.400 238.848 M224.237 244.862 C 223.852 247.267,224.026 247.200,218.176 247.200 L 212.800 247.200 212.800 245.833 C 212.800 243.162,212.711 243.200,218.894 243.200 L 224.502 243.200 224.237 244.862 " stroke="none" fill="#fbf9f9" fill-rule="evenodd"></path><path id="path1" d="M0.000 201.200 L 0.000 402.400 200.000 402.400 L 400.000 402.400 400.000 201.200 L 400.000 0.000 200.000 0.000 L 0.000 0.000 0.000 201.200 M225.200 111.160 C 225.200 111.359,224.525 111.917,223.700 112.401 C 215.409 117.263,194.196 135.311,182.043 147.840 C 149.826 181.056,147.605 200.249,176.323 197.255 C 181.836 196.680,181.359 197.020,180.756 194.098 C 177.656 179.087,198.118 155.058,225.200 141.907 C 263.772 123.177,302.062 119.840,317.919 133.826 C 320.588 136.180,320.350 136.579,317.523 134.491 C 313.155 131.264,310.835 130.207,304.000 128.333 C 298.636 126.861,281.387 126.955,273.600 128.497 C 270.630 129.085,267.570 129.687,266.800 129.834 C 228.506 137.139,187.576 167.651,195.131 183.258 C 196.914 186.940,197.168 186.924,200.049 182.932 C 213.689 164.038,235.028 153.640,260.231 153.607 C 284.849 153.574,311.622 163.580,324.162 177.500 C 326.016 179.559,325.486 179.746,323.344 177.789 C 317.706 172.636,305.913 166.570,294.200 162.798 C 258.123 151.180,228.225 158.011,216.862 180.469 C 214.494 185.149,214.495 185.157,217.067 183.990 C 234.701 175.991,257.336 176.262,269.035 184.610 C 278.047 191.041,281.889 203.874,278.941 217.700 L 278.707 218.800 313.753 218.800 C 333.029 218.800,348.800 218.912,348.800 219.049 C 348.800 219.186,348.017 220.401,347.060 221.749 C 346.103 223.097,343.374 227.080,340.996 230.600 C 338.617 234.120,335.856 238.170,334.859 239.600 C 330.107 246.420,330.326 245.784,331.923 248.142 C 333.313 250.193,337.850 256.830,344.068 265.909 C 346.671 269.709,348.800 272.904,348.800 273.009 C 348.800 273.114,315.197 273.200,274.126 273.200 L 199.451 273.200 197.626 274.714 C 189.892 281.129,172.000 293.503,172.000 292.437 C 172.000 292.249,173.215 291.254,174.700 290.225 C 181.433 285.560,190.130 278.832,193.800 275.449 L 196.200 273.237 169.236 273.218 L 142.272 273.200 135.236 274.831 C 116.045 279.278,99.064 279.127,87.622 274.409 L 84.690 273.200 68.545 273.200 C 58.000 273.200,52.400 273.061,52.400 272.798 C 52.400 272.577,53.180 271.272,54.133 269.898 C 55.848 267.427,58.140 264.071,65.812 252.800 C 67.984 249.610,69.904 246.940,70.080 246.867 C 70.731 246.595,70.326 245.814,67.069 241.061 C 65.236 238.387,61.964 233.590,59.798 230.400 C 57.631 227.210,55.081 223.476,54.129 222.102 C 53.178 220.728,52.400 219.423,52.400 219.202 C 52.400 218.936,65.134 218.800,90.143 218.800 L 127.885 218.800 125.072 215.900 C 121.797 212.523,119.155 207.484,118.413 203.200 C 118.166 201.770,117.792 199.625,117.582 198.433 C 116.137 190.231,119.988 176.245,126.512 166.000 C 132.018 157.353,142.769 145.972,150.203 140.920 C 153.107 138.947,151.917 140.354,147.640 143.948 C 129.672 159.052,119.964 177.964,121.637 194.600 C 123.055 208.693,131.176 216.776,145.600 218.449 C 153.481 219.363,167.372 215.582,173.567 210.836 L 174.534 210.095 171.167 209.816 C 153.694 208.367,146.632 201.094,149.992 188.009 C 154.792 169.322,185.188 136.938,218.926 114.568 C 224.590 110.812,225.200 110.481,225.200 111.160 M244.000 184.789 C 237.998 185.640,232.502 187.551,226.502 190.875 C 222.073 193.328,222.009 193.187,227.777 193.648 C 237.615 194.434,244.903 198.313,247.228 204.000 C 248.056 206.027,247.948 214.414,247.063 216.750 C 246.698 217.713,246.400 218.568,246.400 218.650 C 246.400 219.285,275.139 218.740,275.404 218.100 C 276.850 214.606,275.748 203.995,273.432 199.109 C 268.891 189.528,255.734 183.127,244.000 184.789 M220.829 206.061 C 215.449 206.470,215.947 206.202,216.461 208.411 C 216.867 210.154,216.681 216.097,216.165 217.900 L 215.907 218.800 228.311 218.800 C 242.294 218.800,241.207 219.081,241.191 215.467 C 241.160 208.123,234.450 205.023,220.829 206.061 M199.232 217.541 C 198.610 218.703,198.669 218.800,200.000 218.800 C 201.389 218.800,201.513 218.407,200.432 217.429 C 199.700 216.766,199.643 216.771,199.232 217.541 M137.417 225.300 C 137.331 225.575,137.162 226.610,137.042 227.600 C 136.922 228.590,136.290 233.630,135.637 238.800 C 134.985 243.970,134.252 250.020,134.009 252.245 C 133.766 254.470,133.461 256.945,133.331 257.745 L 133.095 259.200 134.924 259.200 C 137.237 259.200,137.001 259.815,137.999 251.182 C 138.866 243.683,139.592 237.725,140.604 229.800 C 140.913 227.380,141.173 225.265,141.183 225.100 C 141.213 224.572,137.586 224.764,137.417 225.300 M294.224 225.300 C 294.142 225.575,293.703 228.860,293.249 232.600 C 292.795 236.340,291.965 243.180,291.404 247.800 C 290.843 252.420,290.274 256.875,290.140 257.700 L 289.895 259.200 291.948 259.200 C 293.630 259.200,294.002 259.074,294.014 258.500 C 294.026 257.854,294.459 254.265,295.570 245.600 C 296.082 241.604,298.000 225.371,298.000 225.033 C 298.000 224.550,294.373 224.807,294.224 225.300 M93.600 225.626 C 84.130 226.952,78.034 234.956,78.467 245.497 C 78.855 254.939,83.873 259.530,93.326 259.091 C 101.055 258.731,103.835 257.127,104.211 252.807 C 104.355 251.153,104.633 248.630,104.828 247.200 C 105.433 242.780,105.852 243.159,100.500 243.287 L 95.800 243.400 95.676 244.900 L 95.552 246.400 98.176 246.400 L 100.800 246.400 100.800 248.344 C 100.800 254.509,99.805 255.542,93.515 255.899 C 85.808 256.336,81.868 251.211,82.850 242.023 C 83.986 231.392,93.565 225.935,102.364 230.909 L 104.528 232.132 105.464 231.044 C 106.730 229.572,106.683 229.414,104.500 227.824 C 101.833 225.880,97.713 225.050,93.600 225.626 M237.286 226.103 C 233.649 227.268,230.800 231.477,230.800 235.685 C 230.800 239.819,232.465 241.685,238.063 243.824 C 242.491 245.516,243.724 246.817,243.524 249.585 C 243.099 255.454,236.746 257.978,231.707 254.279 C 229.298 252.510,229.118 252.492,227.823 253.888 L 226.814 254.977 228.107 256.337 C 233.053 261.542,243.537 259.712,246.397 253.145 C 249.375 246.308,247.512 242.834,239.107 239.554 C 235.886 238.296,234.589 236.845,234.639 234.551 C 234.742 229.809,240.068 227.419,244.764 230.007 C 247.405 231.463,247.727 231.476,248.588 230.162 C 250.510 227.228,242.619 224.394,237.286 226.103 M256.862 228.700 C 256.661 229.085,256.179 230.882,255.792 232.692 L 255.088 235.985 253.644 236.224 C 251.361 236.601,251.136 236.741,251.272 237.698 C 251.375 238.423,251.694 238.624,252.900 238.724 C 254.684 238.872,254.677 238.818,253.774 244.830 C 252.651 252.303,252.775 257.066,254.122 258.230 C 256.382 260.183,262.747 259.099,262.489 256.805 C 262.319 255.299,261.850 255.094,260.283 255.841 C 256.732 257.535,256.254 255.642,257.600 245.200 C 258.040 241.790,258.399 238.955,258.400 238.900 C 258.400 238.845,259.840 238.800,261.600 238.800 C 264.747 238.800,264.800 238.783,264.800 237.800 C 264.800 237.250,264.845 236.665,264.900 236.500 C 264.955 236.335,263.650 236.110,262.000 236.000 C 259.299 235.820,259.008 235.720,259.077 235.000 C 259.119 234.560,259.277 232.805,259.428 231.100 L 259.703 228.000 258.466 228.000 C 257.693 228.000,257.091 228.263,256.862 228.700 M119.200 236.129 C 111.945 239.129,107.960 246.092,109.176 253.645 C 110.250 260.314,116.535 261.322,121.659 255.647 L 123.688 253.400 123.412 255.721 C 123.088 258.458,123.507 259.200,125.378 259.200 L 126.658 259.200 127.361 253.100 C 128.050 247.130,129.021 239.658,129.384 237.532 C 129.766 235.303,123.339 234.417,119.200 236.129 M153.766 236.147 C 147.451 238.494,143.468 244.303,143.448 251.192 C 143.424 259.749,150.719 262.259,156.200 255.579 L 157.800 253.630 158.000 256.315 L 158.200 259.000 159.672 259.122 C 161.340 259.261,161.045 260.141,161.995 252.200 C 162.231 250.220,162.778 245.908,163.209 242.617 C 163.641 239.326,163.860 236.516,163.697 236.372 C 162.137 234.993,157.170 234.881,153.766 236.147 M308.137 236.415 C 301.373 239.696,298.234 250.276,302.288 256.127 C 305.091 260.172,312.587 260.333,317.146 256.446 C 319.983 254.027,318.363 252.226,315.295 254.389 C 309.731 258.310,303.900 255.950,304.467 250.005 L 304.600 248.610 307.833 248.153 C 314.710 247.180,318.387 245.352,319.175 242.514 C 320.764 236.791,314.499 233.329,308.137 236.415 M168.800 235.751 C 168.800 235.857,169.970 238.185,171.400 240.925 C 174.529 246.920,174.503 246.139,171.700 249.866 C 164.220 259.812,164.544 259.200,166.756 259.200 C 168.727 259.200,169.213 258.764,172.993 253.600 C 174.685 251.290,176.198 249.352,176.357 249.292 C 176.516 249.233,177.715 251.393,179.023 254.092 L 181.400 259.000 183.300 259.122 C 185.697 259.276,185.734 259.537,182.400 252.628 C 179.004 245.589,178.878 247.027,183.400 241.200 C 187.781 235.554,187.764 235.600,185.447 235.600 L 183.693 235.600 180.547 239.771 C 176.949 244.539,177.276 244.556,174.796 239.487 L 172.993 235.800 170.896 235.679 C 169.743 235.613,168.800 235.645,168.800 235.751 M190.000 236.134 C 190.000 236.753,190.811 239.866,193.747 250.526 C 195.998 258.696,196.062 257.296,193.200 262.432 C 190.361 267.526,190.423 267.202,192.300 267.194 C 194.746 267.184,193.490 269.233,206.400 244.200 C 208.442 240.240,210.268 236.829,210.457 236.620 C 211.139 235.864,210.768 235.600,209.023 235.600 C 206.833 235.600,207.154 235.155,202.412 244.754 C 200.335 248.959,198.519 252.400,198.378 252.400 C 198.149 252.400,196.570 246.776,194.504 238.600 L 193.796 235.800 191.898 235.678 C 190.454 235.585,190.000 235.694,190.000 236.134 M268.008 235.900 C 268.021 236.359,272.403 252.663,273.404 255.976 C 273.902 257.625,273.875 257.869,273.035 259.376 C 272.537 260.269,271.358 262.406,270.415 264.124 L 268.701 267.248 270.644 267.124 L 272.587 267.000 274.121 264.200 C 274.964 262.660,277.331 258.160,279.380 254.200 C 281.430 250.240,284.387 244.532,285.953 241.515 C 289.281 235.102,289.157 235.600,287.433 235.600 C 285.148 235.600,285.003 235.789,280.801 244.276 C 278.563 248.795,276.597 252.337,276.430 252.146 C 276.055 251.717,274.770 247.196,273.374 241.400 C 271.986 235.632,271.966 235.600,269.786 235.600 C 268.804 235.600,268.004 235.735,268.008 235.900 M125.151 238.617 C 125.548 239.015,124.235 246.668,123.407 248.782 C 119.227 259.447,110.195 257.566,113.357 246.689 C 114.981 241.101,122.493 235.960,125.151 238.617 M158.700 238.252 C 160.232 238.663,159.713 244.674,157.741 249.363 C 153.708 258.951,145.726 257.883,147.599 248.005 C 148.518 243.159,151.985 239.185,156.000 238.374 C 156.770 238.219,157.490 238.074,157.600 238.051 C 157.710 238.029,158.205 238.119,158.700 238.252 M315.300 239.265 C 317.512 241.868,314.448 244.577,308.051 245.674 C 304.680 246.252,304.635 246.223,305.410 243.968 C 307.072 239.128,312.850 236.381,315.300 239.265 M213.443 244.233 C 213.309 244.581,213.200 245.301,213.200 245.833 L 213.200 246.800 218.400 246.800 C 223.084 246.800,223.601 246.730,223.605 246.100 C 223.608 245.715,223.719 244.995,223.852 244.500 C 224.170 243.313,213.897 243.049,213.443 244.233 M89.600 273.771 C 94.808 276.578,122.133 276.571,128.583 273.762 C 129.614 273.312,126.653 273.231,109.200 273.232 C 91.698 273.232,88.750 273.313,89.600 273.771 " stroke="none" fill="#ec4c34" fill-rule="evenodd"></path><path id="path2" d="M222.700 112.052 C 221.655 112.735,220.800 113.464,220.800 113.671 C 220.800 113.878,220.575 113.918,220.300 113.759 C 220.025 113.601,219.933 113.619,220.097 113.799 C 220.260 113.979,220.195 114.365,219.953 114.657 C 219.710 114.949,220.747 114.363,222.256 113.354 C 224.828 111.635,225.711 110.794,224.933 110.805 C 224.750 110.807,223.745 111.369,222.700 112.052 M282.311 125.493 C 283.251 125.578,284.691 125.577,285.511 125.491 C 286.330 125.405,285.560 125.336,283.800 125.337 C 282.040 125.339,281.370 125.409,282.311 125.493 M289.500 125.493 C 290.435 125.577,291.965 125.577,292.900 125.493 C 293.835 125.409,293.070 125.340,291.200 125.340 C 289.330 125.340,288.565 125.409,289.500 125.493 M287.900 127.097 C 289.495 127.173,292.105 127.173,293.700 127.097 C 295.295 127.021,293.990 126.959,290.800 126.959 C 287.610 126.959,286.305 127.021,287.900 127.097 M312.490 130.745 C 312.228 130.906,312.550 131.301,313.290 131.726 C 314.085 132.182,314.363 132.237,314.068 131.881 C 313.814 131.576,313.703 131.230,313.821 131.113 C 314.160 130.773,312.974 130.445,312.490 130.745 M314.697 131.656 C 314.970 131.996,315.065 132.402,314.909 132.558 C 314.752 132.714,314.963 132.712,315.378 132.553 C 315.872 132.364,316.040 132.412,315.865 132.694 C 315.614 133.101,319.498 136.236,319.835 135.898 C 320.139 135.595,317.549 133.410,316.880 133.405 C 316.507 133.402,316.202 133.178,316.201 132.908 C 316.200 132.637,315.750 132.106,315.200 131.727 C 314.422 131.191,314.310 131.175,314.697 131.656 M196.778 133.500 L 195.400 135.000 196.900 133.622 C 197.725 132.863,198.400 132.188,198.400 132.122 C 198.400 131.816,198.062 132.104,196.778 133.500 M193.178 136.700 L 191.800 138.200 193.300 136.822 C 194.125 136.063,194.800 135.388,194.800 135.322 C 194.800 135.016,194.462 135.304,193.178 136.700 M188.975 137.700 L 187.800 139.000 189.100 137.825 C 190.312 136.730,190.584 136.400,190.275 136.400 C 190.206 136.400,189.621 136.985,188.975 137.700 M185.178 141.100 L 183.800 142.600 185.300 141.222 C 186.125 140.463,186.800 139.788,186.800 139.722 C 186.800 139.416,186.462 139.704,185.178 141.100 M185.000 144.400 C 182.367 147.040,180.303 149.200,180.413 149.200 C 180.523 149.200,182.767 147.040,185.400 144.400 C 188.033 141.760,190.097 139.600,189.987 139.600 C 189.877 139.600,187.633 141.760,185.000 144.400 M150.676 140.574 C 150.278 140.876,150.119 141.226,150.323 141.352 C 150.526 141.478,151.015 141.225,151.409 140.791 C 152.224 139.889,151.760 139.752,150.676 140.574 M147.763 142.733 C 147.123 143.284,146.600 143.929,146.600 144.167 C 146.600 144.405,146.375 144.600,146.099 144.600 C 145.455 144.600,140.281 149.215,140.585 149.518 C 140.711 149.644,140.226 150.388,139.507 151.172 C 138.788 151.955,139.820 151.067,141.800 149.198 C 143.780 147.329,146.474 144.885,147.786 143.767 C 149.098 142.648,149.891 141.733,149.549 141.733 C 149.206 141.733,148.402 142.183,147.763 142.733 M144.000 146.519 C 144.000 146.584,143.235 147.349,142.300 148.219 L 140.600 149.800 142.181 148.100 C 143.652 146.519,144.000 146.216,144.000 146.519 M171.381 154.900 L 169.800 156.600 171.500 155.019 C 173.081 153.548,173.384 153.200,173.081 153.200 C 173.016 153.200,172.251 153.965,171.381 154.900 M254.300 153.882 C 254.795 153.978,255.605 153.978,256.100 153.882 C 256.595 153.787,256.190 153.709,255.200 153.709 C 254.210 153.709,253.805 153.787,254.300 153.882 M265.105 153.883 C 265.602 153.979,266.322 153.975,266.705 153.875 C 267.087 153.775,266.680 153.696,265.800 153.701 C 264.920 153.705,264.607 153.787,265.105 153.883 M133.978 155.900 L 132.600 157.400 134.100 156.022 C 134.925 155.263,135.600 154.588,135.600 154.522 C 135.600 154.216,135.262 154.504,133.978 155.900 M168.175 158.500 L 167.000 159.800 168.300 158.625 C 169.512 157.530,169.784 157.200,169.475 157.200 C 169.406 157.200,168.821 157.785,168.175 158.500 M254.705 157.483 C 255.202 157.579,255.922 157.575,256.305 157.475 C 256.687 157.375,256.280 157.296,255.400 157.301 C 254.520 157.305,254.207 157.387,254.705 157.483 M267.300 157.476 C 267.685 157.576,268.315 157.576,268.700 157.476 C 269.085 157.375,268.770 157.293,268.000 157.293 C 267.230 157.293,266.915 157.375,267.300 157.476 M204.400 160.600 C 203.428 161.590,202.723 162.400,202.833 162.400 C 202.943 162.400,203.828 161.590,204.800 160.600 C 205.772 159.610,206.477 158.800,206.367 158.800 C 206.257 158.800,205.372 159.610,204.400 160.600 M221.900 163.029 C 220.405 163.840,220.496 164.178,222.000 163.400 C 222.660 163.059,223.200 162.694,223.200 162.590 C 223.200 162.332,223.157 162.347,221.900 163.029 M200.975 164.500 L 199.800 165.800 201.100 164.625 C 202.312 163.530,202.584 163.200,202.275 163.200 C 202.206 163.200,201.621 163.785,200.975 164.500 M192.975 165.700 L 191.800 167.000 193.100 165.825 C 194.312 164.730,194.584 164.400,194.275 164.400 C 194.206 164.400,193.621 164.985,192.975 165.700 M210.175 171.700 L 209.000 173.000 210.300 171.825 C 211.015 171.179,211.600 170.594,211.600 170.525 C 211.600 170.216,211.270 170.488,210.175 171.700 M322.548 177.091 C 322.959 177.573,323.499 177.930,323.748 177.884 C 323.996 177.838,324.151 178.038,324.090 178.330 C 324.030 178.621,324.165 178.745,324.390 178.606 C 324.616 178.467,324.800 178.543,324.800 178.776 C 324.800 179.009,325.014 179.200,325.275 179.200 C 325.536 179.200,325.234 178.662,324.604 178.004 C 323.974 177.346,323.372 176.895,323.266 177.001 C 323.160 177.106,322.787 176.973,322.437 176.703 C 322.027 176.389,322.067 176.527,322.548 177.091 M242.900 178.296 C 244.165 178.375,246.235 178.375,247.500 178.296 C 248.765 178.216,247.730 178.151,245.200 178.151 C 242.670 178.151,241.635 178.216,242.900 178.296 M214.865 183.817 C 214.287 185.086,214.287 185.200,214.867 185.200 C 215.123 185.200,215.220 185.086,215.081 184.947 C 214.942 184.808,215.016 184.343,215.246 183.913 C 215.477 183.483,215.589 183.056,215.497 182.964 C 215.405 182.872,215.121 183.256,214.865 183.817 M243.905 184.683 C 244.402 184.779,245.122 184.775,245.505 184.675 C 245.887 184.575,245.480 184.496,244.600 184.501 C 243.720 184.505,243.407 184.587,243.905 184.683 M249.900 184.682 C 250.395 184.778,251.205 184.778,251.700 184.682 C 252.195 184.587,251.790 184.509,250.800 184.509 C 249.810 184.509,249.405 184.587,249.900 184.682 M196.561 185.899 C 197.255 186.718,198.400 186.577,198.400 185.671 C 198.400 185.544,198.186 185.654,197.925 185.915 C 197.559 186.281,197.262 186.230,196.625 185.695 C 195.802 185.002,195.802 185.002,196.561 185.899 M271.800 187.200 C 272.659 188.080,273.452 188.800,273.562 188.800 C 273.672 188.800,273.059 188.080,272.200 187.200 C 271.341 186.320,270.548 185.600,270.438 185.600 C 270.328 185.600,270.941 186.320,271.800 187.200 M121.293 188.800 C 121.293 189.570,121.375 189.885,121.476 189.500 C 121.576 189.115,121.576 188.485,121.476 188.100 C 121.375 187.715,121.293 188.030,121.293 188.800 M117.334 194.400 C 117.334 196.050,117.405 196.725,117.491 195.900 C 117.578 195.075,117.578 193.725,117.491 192.900 C 117.405 192.075,117.334 192.750,117.334 194.400 M121.301 193.400 C 121.305 194.280,121.387 194.593,121.483 194.095 C 121.579 193.598,121.575 192.878,121.475 192.495 C 121.375 192.113,121.296 192.520,121.301 193.400 M222.400 193.255 C 222.400 193.445,222.850 193.600,223.400 193.600 C 223.950 193.600,224.400 193.531,224.400 193.447 C 224.400 193.362,223.950 193.207,223.400 193.102 C 222.850 192.997,222.400 193.066,222.400 193.255 M180.000 196.800 L 178.600 197.095 179.876 197.147 C 180.578 197.176,181.264 197.020,181.400 196.800 C 181.536 196.580,181.592 196.424,181.524 196.453 C 181.456 196.482,180.770 196.638,180.000 196.800 M166.705 197.483 C 167.202 197.579,167.922 197.575,168.305 197.475 C 168.687 197.375,168.280 197.296,167.400 197.301 C 166.520 197.305,166.207 197.387,166.705 197.483 M175.905 197.483 C 176.402 197.579,177.122 197.575,177.505 197.475 C 177.887 197.375,177.480 197.296,176.600 197.301 C 175.720 197.305,175.407 197.387,175.905 197.483 M242.800 198.525 C 242.800 198.594,243.385 199.179,244.100 199.825 L 245.400 201.000 244.225 199.700 C 243.130 198.488,242.800 198.216,242.800 198.525 M279.748 208.800 C 279.748 211.110,279.814 212.055,279.895 210.900 C 279.976 209.745,279.976 207.855,279.895 206.700 C 279.814 205.545,279.748 206.490,279.748 208.800 M222.100 205.887 C 222.705 205.978,223.695 205.978,224.300 205.887 C 224.905 205.795,224.410 205.720,223.200 205.720 C 221.990 205.720,221.495 205.795,222.100 205.887 M128.200 211.200 C 129.059 212.080,129.852 212.800,129.962 212.800 C 130.072 212.800,129.459 212.080,128.600 211.200 C 127.741 210.320,126.948 209.600,126.838 209.600 C 126.728 209.600,127.341 210.320,128.200 211.200 M171.700 209.876 C 172.085 209.976,172.715 209.976,173.100 209.876 C 173.485 209.775,173.170 209.693,172.400 209.693 C 171.630 209.693,171.315 209.775,171.700 209.876 M241.320 215.600 C 241.320 216.810,241.395 217.305,241.487 216.700 C 241.578 216.095,241.578 215.105,241.487 214.500 C 241.395 213.895,241.320 214.390,241.320 215.600 M125.400 216.400 C 126.259 217.280,127.052 218.000,127.162 218.000 C 127.272 218.000,126.659 217.280,125.800 216.400 C 124.941 215.520,124.148 214.800,124.038 214.800 C 123.928 214.800,124.541 215.520,125.400 216.400 M240.705 225.483 C 241.202 225.579,241.922 225.575,242.305 225.475 C 242.687 225.375,242.280 225.296,241.400 225.301 C 240.520 225.305,240.207 225.387,240.705 225.483 M293.693 227.200 C 293.693 227.970,293.775 228.285,293.876 227.900 C 293.976 227.515,293.976 226.885,293.876 226.500 C 293.775 226.115,293.693 226.430,293.693 227.200 M247.200 226.925 C 247.200 226.994,247.785 227.579,248.500 228.225 L 249.800 229.400 248.625 228.100 C 247.530 226.888,247.200 226.616,247.200 226.925 M233.375 228.500 L 232.200 229.800 233.500 228.625 C 234.215 227.979,234.800 227.394,234.800 227.325 C 234.800 227.016,234.470 227.288,233.375 228.500 M258.400 227.877 C 258.950 227.989,259.549 228.288,259.730 228.540 C 259.951 228.848,260.007 228.801,259.900 228.400 C 259.809 228.062,259.229 227.772,258.569 227.737 C 257.562 227.682,257.539 227.701,258.400 227.877 M83.775 230.100 L 82.600 231.400 83.900 230.225 C 85.112 229.130,85.384 228.800,85.075 228.800 C 85.006 228.800,84.421 229.385,83.775 230.100 M297.293 231.200 C 297.293 231.970,297.375 232.285,297.476 231.900 C 297.576 231.515,297.576 230.885,297.476 230.500 C 297.375 230.115,297.293 230.430,297.293 231.200 M245.949 230.900 C 246.251 231.285,246.881 231.579,247.349 231.554 C 248.157 231.510,248.160 231.497,247.400 231.311 C 246.960 231.202,246.330 230.908,246.000 230.657 C 245.478 230.260,245.472 230.291,245.949 230.900 M235.355 231.812 C 234.990 232.369,234.764 232.898,234.853 232.987 C 234.942 233.076,235.318 232.620,235.689 231.974 C 236.514 230.536,236.269 230.417,235.355 231.812 M136.093 233.200 C 136.093 233.970,136.175 234.285,136.276 233.900 C 136.376 233.515,136.376 232.885,136.276 232.500 C 136.175 232.115,136.093 232.430,136.093 233.200 M230.501 235.800 C 230.505 236.680,230.587 236.993,230.683 236.495 C 230.779 235.998,230.775 235.278,230.675 234.895 C 230.575 234.513,230.496 234.920,230.501 235.800 M135.701 236.200 C 135.705 237.080,135.787 237.393,135.883 236.895 C 135.979 236.398,135.975 235.678,135.875 235.295 C 135.775 234.913,135.696 235.320,135.701 236.200 M169.705 235.487 C 170.314 235.579,171.214 235.577,171.705 235.482 C 172.197 235.387,171.700 235.311,170.600 235.314 C 169.500 235.317,169.097 235.395,169.705 235.487 M185.733 235.493 C 186.889 235.613,187.209 235.798,187.037 236.247 C 186.909 236.582,186.982 236.735,187.205 236.597 C 188.272 235.938,187.550 235.202,185.900 235.267 L 184.200 235.334 185.733 235.493 M189.738 235.817 C 189.608 236.157,189.613 236.547,189.751 236.684 C 189.888 236.821,190.000 236.644,190.000 236.291 C 190.000 235.843,190.454 235.601,191.500 235.491 L 193.000 235.334 191.487 235.267 C 190.447 235.221,189.901 235.393,189.738 235.817 M208.500 235.476 C 208.885 235.576,209.515 235.576,209.900 235.476 C 210.285 235.375,209.970 235.293,209.200 235.293 C 208.430 235.293,208.115 235.375,208.500 235.476 M268.900 235.476 C 269.285 235.576,269.915 235.576,270.300 235.476 C 270.685 235.375,270.370 235.293,269.600 235.293 C 268.830 235.293,268.515 235.375,268.900 235.476 M286.000 235.358 C 286.000 235.445,286.705 235.583,287.566 235.665 C 288.428 235.748,289.047 235.676,288.943 235.507 C 288.753 235.200,286.000 235.060,286.000 235.358 M139.693 236.800 C 139.693 237.570,139.775 237.885,139.876 237.500 C 139.976 237.115,139.976 236.485,139.876 236.100 C 139.775 235.715,139.693 236.030,139.693 236.800 M236.276 237.900 C 236.998 238.615,237.816 239.195,238.094 239.188 C 238.372 239.181,238.240 238.977,237.800 238.734 C 237.360 238.492,236.542 237.912,235.981 237.446 C 235.421 236.981,235.554 237.185,236.276 237.900 M113.775 239.300 L 112.600 240.600 113.900 239.425 C 115.112 238.330,115.384 238.000,115.075 238.000 C 115.006 238.000,114.421 238.585,113.775 239.300 M147.978 239.500 L 146.600 241.000 148.100 239.622 C 149.496 238.338,149.784 238.000,149.478 238.000 C 149.412 238.000,148.737 238.675,147.978 239.500 M151.178 241.100 L 149.800 242.600 151.300 241.222 C 152.696 239.938,152.984 239.600,152.678 239.600 C 152.612 239.600,151.937 240.275,151.178 241.100 M258.093 241.600 C 258.093 242.370,258.175 242.685,258.276 242.300 C 258.376 241.915,258.376 241.285,258.276 240.900 C 258.175 240.515,258.093 240.830,258.093 241.600 M285.800 241.600 C 285.459 242.260,285.269 242.800,285.379 242.800 C 285.489 242.800,285.859 242.260,286.200 241.600 C 286.541 240.940,286.731 240.400,286.621 240.400 C 286.511 240.400,286.141 240.940,285.800 241.600 M124.493 243.200 C 124.493 243.970,124.575 244.285,124.676 243.900 C 124.776 243.515,124.776 242.885,124.676 242.500 C 124.575 242.115,124.493 242.430,124.493 243.200 M213.467 243.467 C 213.320 243.613,213.203 243.928,213.206 244.167 C 213.210 244.433,213.332 244.412,213.522 244.113 C 213.732 243.782,215.497 243.585,219.016 243.500 L 224.200 243.374 218.967 243.287 C 216.088 243.239,213.613 243.320,213.467 243.467 M144.465 244.617 C 144.209 245.178,144.007 245.854,144.016 246.119 C 144.024 246.383,144.297 245.988,144.622 245.239 C 145.305 243.665,145.161 243.090,144.465 244.617 M279.400 246.400 C 279.059 247.060,278.869 247.600,278.979 247.600 C 279.089 247.600,279.459 247.060,279.800 246.400 C 280.141 245.740,280.331 245.200,280.221 245.200 C 280.111 245.200,279.741 245.740,279.400 246.400 M128.093 247.200 C 128.093 247.970,128.175 248.285,128.276 247.900 C 128.376 247.515,128.376 246.885,128.276 246.500 C 128.175 246.115,128.093 246.430,128.093 247.200 M147.293 250.400 C 147.293 251.170,147.375 251.485,147.476 251.100 C 147.576 250.715,147.576 250.085,147.476 249.700 C 147.375 249.315,147.293 249.630,147.293 250.400 M290.893 250.400 C 290.893 251.170,290.975 251.485,291.076 251.100 C 291.176 250.715,291.176 250.085,291.076 249.700 C 290.975 249.315,290.893 249.630,290.893 250.400 M162.093 251.200 C 162.093 251.970,162.175 252.285,162.276 251.900 C 162.376 251.515,162.376 250.885,162.276 250.500 C 162.175 250.115,162.093 250.430,162.093 251.200 M280.200 252.400 C 279.859 253.060,279.669 253.600,279.779 253.600 C 279.889 253.600,280.259 253.060,280.600 252.400 C 280.941 251.740,281.131 251.200,281.021 251.200 C 280.911 251.200,280.541 251.740,280.200 252.400 M228.603 252.795 C 228.462 253.023,228.624 253.089,228.984 252.951 C 229.329 252.819,229.923 252.956,230.305 253.255 C 230.934 253.748,230.948 253.733,230.451 253.100 C 229.844 252.327,228.981 252.184,228.603 252.795 M294.501 254.200 C 294.505 255.080,294.587 255.393,294.683 254.895 C 294.779 254.398,294.775 253.678,294.675 253.295 C 294.575 252.913,294.496 253.320,294.501 254.200 M154.175 254.500 L 153.000 255.800 154.300 254.625 C 155.512 253.530,155.784 253.200,155.475 253.200 C 155.406 253.200,154.821 253.785,154.175 254.500 M161.693 254.400 C 161.693 255.170,161.775 255.485,161.876 255.100 C 161.976 254.715,161.976 254.085,161.876 253.700 C 161.775 253.315,161.693 253.630,161.693 254.400 M122.749 254.277 C 122.438 254.660,122.405 254.831,122.671 254.671 C 122.965 254.495,123.208 254.730,123.317 255.294 C 123.444 255.956,123.506 255.850,123.546 254.900 C 123.608 253.413,123.511 253.338,122.749 254.277 M226.800 255.325 C 226.800 255.394,227.385 255.979,228.100 256.625 L 229.400 257.800 228.225 256.500 C 227.130 255.288,226.800 255.016,226.800 255.325 M235.507 255.890 C 236.226 255.979,237.306 255.977,237.907 255.886 C 238.508 255.795,237.920 255.722,236.600 255.724 C 235.280 255.726,234.788 255.801,235.507 255.890 M157.693 257.200 C 157.693 257.970,157.775 258.285,157.876 257.900 C 157.976 257.515,157.976 256.885,157.876 256.500 C 157.775 256.115,157.693 256.430,157.693 257.200 M309.100 256.282 C 309.595 256.378,310.405 256.378,310.900 256.282 C 311.395 256.187,310.990 256.109,310.000 256.109 C 309.010 256.109,308.605 256.187,309.100 256.282 M90.512 259.495 C 91.564 259.577,93.184 259.576,94.112 259.492 C 95.040 259.408,94.180 259.341,92.200 259.342 C 90.220 259.343,89.460 259.412,90.512 259.495 M114.105 259.487 C 114.714 259.579,115.614 259.577,116.105 259.482 C 116.597 259.387,116.100 259.311,115.000 259.314 C 113.900 259.317,113.497 259.395,114.105 259.487 M148.700 259.482 C 149.195 259.578,150.005 259.578,150.500 259.482 C 150.995 259.387,150.590 259.309,149.600 259.309 C 148.610 259.309,148.205 259.387,148.700 259.482 M234.500 259.491 C 235.325 259.578,236.675 259.578,237.500 259.491 C 238.325 259.405,237.650 259.334,236.000 259.334 C 234.350 259.334,233.675 259.405,234.500 259.491 M256.500 259.487 C 257.105 259.578,258.095 259.578,258.700 259.487 C 259.305 259.395,258.810 259.320,257.600 259.320 C 256.390 259.320,255.895 259.395,256.500 259.487 M307.907 259.490 C 308.626 259.579,309.706 259.577,310.307 259.486 C 310.908 259.395,310.320 259.322,309.000 259.324 C 307.680 259.326,307.188 259.401,307.907 259.490 M129.000 273.600 C 127.981 274.038,129.032 274.038,130.400 273.600 C 131.204 273.343,131.243 273.277,130.600 273.268 C 130.160 273.262,129.440 273.411,129.000 273.600 M194.975 274.500 L 193.800 275.800 195.100 274.625 C 196.312 273.530,196.584 273.200,196.275 273.200 C 196.206 273.200,195.621 273.785,194.975 274.500 M103.900 276.298 C 105.715 276.372,108.685 276.372,110.500 276.298 C 112.315 276.223,110.830 276.163,107.200 276.163 C 103.570 276.163,102.085 276.223,103.900 276.298 M115.300 277.876 C 115.685 277.976,116.315 277.976,116.700 277.876 C 117.085 277.775,116.770 277.693,116.000 277.693 C 115.230 277.693,114.915 277.775,115.300 277.876 M178.157 287.736 C 177.329 288.447,177.195 288.750,177.596 288.998 C 177.931 289.205,178.027 289.168,177.860 288.897 C 177.715 288.662,178.092 288.100,178.698 287.648 C 179.304 287.195,179.675 286.820,179.522 286.813 C 179.370 286.806,178.755 287.221,178.157 287.736 M174.396 290.461 C 173.738 290.861,173.200 291.405,173.200 291.671 C 173.200 291.936,173.443 291.821,173.739 291.415 C 174.036 291.010,174.446 290.781,174.651 290.908 C 174.855 291.034,175.441 290.822,175.953 290.435 C 177.241 289.464,176.003 289.484,174.396 290.461 " stroke="none" fill="#ef8d7c" fill-rule="evenodd"></path><path id="path3" d="M215.681 116.994 C 213.986 118.164,213.803 118.358,214.489 118.257 C 215.229 118.149,217.456 116.520,217.199 116.275 C 217.090 116.170,216.407 116.494,215.681 116.994 M280.307 125.890 C 281.026 125.979,282.106 125.977,282.707 125.886 C 283.308 125.795,282.720 125.722,281.400 125.724 C 280.080 125.726,279.588 125.801,280.307 125.890 M293.300 125.887 C 293.905 125.978,294.895 125.978,295.500 125.887 C 296.105 125.795,295.610 125.720,294.400 125.720 C 293.190 125.720,292.695 125.795,293.300 125.887 M288.900 126.694 C 289.945 126.776,291.655 126.776,292.700 126.694 C 293.745 126.612,292.890 126.544,290.800 126.544 C 288.710 126.544,287.855 126.612,288.900 126.694 M282.305 127.083 C 282.802 127.179,283.522 127.175,283.905 127.075 C 284.287 126.975,283.880 126.896,283.000 126.901 C 282.120 126.905,281.807 126.987,282.305 127.083 M306.258 128.307 C 306.142 128.493,307.477 129.114,309.224 129.687 C 312.943 130.906,313.238 130.842,310.234 129.467 C 307.350 128.147,306.508 127.901,306.258 128.307 M196.575 133.300 L 195.400 134.600 196.700 133.425 C 197.912 132.330,198.184 132.000,197.875 132.000 C 197.806 132.000,197.221 132.585,196.575 133.300 M191.775 137.700 L 190.600 139.000 191.900 137.825 C 193.112 136.730,193.384 136.400,193.075 136.400 C 193.006 136.400,192.421 136.985,191.775 137.700 M139.400 150.768 C 135.606 154.502,132.459 157.818,133.237 157.262 C 133.587 157.012,133.963 156.896,134.073 157.006 C 134.182 157.115,134.598 156.844,134.998 156.402 C 135.397 155.961,135.600 155.600,135.448 155.600 C 135.296 155.600,135.814 155.036,136.600 154.347 C 137.385 153.657,137.955 153.022,137.867 152.934 C 137.779 152.846,138.808 151.703,140.153 150.394 C 141.499 149.086,142.510 148.014,142.400 148.013 C 142.290 148.012,140.940 149.252,139.400 150.768 M178.378 151.100 L 177.000 152.600 178.500 151.222 C 179.325 150.463,180.000 149.788,180.000 149.722 C 180.000 149.416,179.662 149.704,178.378 151.100 M259.107 153.890 C 259.826 153.979,260.906 153.977,261.507 153.886 C 262.108 153.795,261.520 153.722,260.200 153.724 C 258.880 153.726,258.388 153.801,259.107 153.890 M252.500 154.276 C 252.885 154.376,253.515 154.376,253.900 154.276 C 254.285 154.175,253.970 154.093,253.200 154.093 C 252.430 154.093,252.115 154.175,252.500 154.276 M266.905 154.287 C 267.514 154.379,268.414 154.377,268.905 154.282 C 269.397 154.187,268.900 154.111,267.800 154.114 C 266.700 154.117,266.297 154.195,266.905 154.287 M255.900 157.082 C 256.395 157.178,257.205 157.178,257.700 157.082 C 258.195 156.987,257.790 156.909,256.800 156.909 C 255.810 156.909,255.405 156.987,255.900 157.082 M265.300 157.087 C 265.905 157.178,266.895 157.178,267.500 157.087 C 268.105 156.995,267.610 156.920,266.400 156.920 C 265.190 156.920,264.695 156.995,265.300 157.087 M251.700 157.476 C 252.085 157.576,252.715 157.576,253.100 157.476 C 253.485 157.375,253.170 157.293,252.400 157.293 C 251.630 157.293,251.315 157.375,251.700 157.476 M270.705 157.483 C 271.202 157.579,271.922 157.575,272.305 157.475 C 272.687 157.375,272.280 157.296,271.400 157.301 C 270.520 157.305,270.207 157.387,270.705 157.483 M192.175 166.900 L 191.000 168.200 192.300 167.025 C 193.512 165.930,193.784 165.600,193.475 165.600 C 193.406 165.600,192.821 166.185,192.175 166.900 M224.000 169.800 C 223.028 170.790,222.323 171.600,222.433 171.600 C 222.543 171.600,223.428 170.790,224.400 169.800 C 225.372 168.810,226.077 168.000,225.967 168.000 C 225.857 168.000,224.972 168.810,224.000 169.800 M122.065 174.617 C 121.395 176.088,121.523 176.402,122.247 175.065 C 122.586 174.440,122.788 173.854,122.696 173.763 C 122.605 173.671,122.321 174.056,122.065 174.617 M159.000 176.400 C 158.659 177.060,158.469 177.600,158.579 177.600 C 158.689 177.600,159.059 177.060,159.400 176.400 C 159.741 175.740,159.931 175.200,159.821 175.200 C 159.711 175.200,159.341 175.740,159.000 176.400 M246.707 184.290 C 247.426 184.379,248.506 184.377,249.107 184.286 C 249.708 184.195,249.120 184.122,247.800 184.124 C 246.480 184.126,245.988 184.201,246.707 184.290 M196.561 186.299 C 197.255 187.118,198.400 186.977,198.400 186.071 C 198.400 185.944,198.186 186.054,197.925 186.315 C 197.559 186.681,197.262 186.630,196.625 186.095 C 195.802 185.402,195.802 185.402,196.561 186.299 M271.583 187.300 C 273.241 189.066,273.600 189.384,273.600 189.083 C 273.600 189.019,272.745 188.164,271.700 187.183 L 269.800 185.400 271.583 187.300 M266.800 190.525 C 266.800 190.594,267.385 191.179,268.100 191.825 L 269.400 193.000 268.225 191.700 C 267.130 190.488,266.800 190.216,266.800 190.525 M224.505 193.887 C 225.114 193.979,226.014 193.977,226.505 193.882 C 226.997 193.787,226.500 193.711,225.400 193.714 C 224.300 193.717,223.897 193.795,224.505 193.887 M117.693 196.800 C 117.693 197.570,117.775 197.885,117.876 197.500 C 117.976 197.115,117.976 196.485,117.876 196.100 C 117.775 195.715,117.693 196.030,117.693 196.800 M173.905 197.883 C 174.402 197.979,175.122 197.975,175.505 197.875 C 175.887 197.775,175.480 197.696,174.600 197.701 C 173.720 197.705,173.407 197.787,173.905 197.883 M224.291 205.489 C 225.001 205.577,226.261 205.579,227.091 205.492 C 227.921 205.405,227.340 205.333,225.800 205.331 C 224.260 205.329,223.581 205.400,224.291 205.489 M215.738 206.617 C 215.608 206.957,215.613 207.347,215.751 207.484 C 215.888 207.621,216.000 207.446,216.000 207.094 C 216.000 206.743,216.405 206.378,216.900 206.282 L 217.800 206.109 216.887 206.054 C 216.386 206.025,215.868 206.278,215.738 206.617 M276.120 211.200 C 276.120 212.410,276.195 212.905,276.287 212.300 C 276.378 211.695,276.378 210.705,276.287 210.100 C 276.195 209.495,276.120 209.990,276.120 211.200 M128.161 218.336 C 128.374 218.681,118.966 218.822,90.522 218.900 L 52.600 219.004 90.700 219.102 C 126.565 219.194,129.875 219.112,128.338 218.162 C 128.053 217.985,127.985 218.052,128.161 218.336 M182.800 218.380 C 182.800 218.696,182.493 218.813,182.000 218.684 C 181.560 218.569,181.200 218.638,181.200 218.837 C 181.200 219.345,182.696 219.292,183.016 218.773 C 183.161 218.539,183.172 218.239,183.040 218.107 C 182.908 217.975,182.800 218.098,182.800 218.380 M241.200 218.333 C 241.200 218.677,237.808 218.825,228.300 218.894 L 215.400 218.988 228.174 219.100 C 240.147 219.204,242.377 219.044,241.473 218.140 C 241.323 217.990,241.200 218.077,241.200 218.333 M198.000 218.900 C 198.000 219.065,198.900 219.200,200.000 219.200 C 201.100 219.200,202.000 219.065,202.000 218.900 C 202.000 218.735,201.100 218.600,200.000 218.600 C 198.900 218.600,198.000 218.735,198.000 218.900 M253.300 219.099 C 257.425 219.164,264.175 219.164,268.300 219.099 C 272.425 219.034,269.050 218.981,260.800 218.981 C 252.550 218.981,249.175 219.034,253.300 219.099 M290.800 219.094 C 323.788 219.369,348.306 219.372,348.138 219.100 C 348.036 218.935,332.258 218.842,313.076 218.894 C 293.894 218.946,283.870 219.036,290.800 219.094 M94.905 225.087 C 95.514 225.179,96.414 225.177,96.905 225.082 C 97.397 224.987,96.900 224.911,95.800 224.914 C 94.700 224.917,94.297 224.995,94.905 225.087 M234.901 234.600 C 234.905 235.480,234.987 235.793,235.083 235.295 C 235.179 234.798,235.175 234.078,235.075 233.695 C 234.975 233.313,234.896 233.720,234.901 234.600 M122.900 235.076 C 123.285 235.176,123.915 235.176,124.300 235.076 C 124.685 234.975,124.370 234.893,123.600 234.893 C 122.830 234.893,122.515 234.975,122.900 235.076 M157.505 235.083 C 158.002 235.179,158.722 235.175,159.105 235.075 C 159.487 234.975,159.080 234.896,158.200 234.901 C 157.320 234.905,157.007 234.987,157.505 235.083 M312.100 235.076 C 312.485 235.176,313.115 235.176,313.500 235.076 C 313.885 234.975,313.570 234.893,312.800 234.893 C 312.030 234.893,311.715 234.975,312.100 235.076 M163.460 235.870 C 163.712 236.051,164.011 236.650,164.123 237.200 C 164.299 238.061,164.318 238.038,164.263 237.031 C 164.228 236.371,163.938 235.791,163.600 235.700 C 163.199 235.593,163.152 235.649,163.460 235.870 M260.900 235.891 C 261.725 235.978,263.075 235.978,263.900 235.891 C 264.725 235.805,264.050 235.734,262.400 235.734 C 260.750 235.734,260.075 235.805,260.900 235.891 M209.400 238.800 C 209.059 239.460,208.869 240.000,208.979 240.000 C 209.089 240.000,209.459 239.460,209.800 238.800 C 210.141 238.140,210.331 237.600,210.221 237.600 C 210.111 237.600,209.741 238.140,209.400 238.800 M113.375 239.300 L 112.200 240.600 113.500 239.425 C 114.712 238.330,114.984 238.000,114.675 238.000 C 114.606 238.000,114.021 238.585,113.375 239.300 M250.900 238.400 C 251.006 238.792,251.607 239.018,252.631 239.051 C 254.134 239.100,254.141 239.094,252.803 238.918 C 252.035 238.817,251.257 238.525,251.073 238.267 C 250.845 237.949,250.790 237.991,250.900 238.400 M264.800 238.333 C 264.800 238.642,263.750 238.827,261.700 238.879 L 258.600 238.959 261.561 239.098 C 264.301 239.227,265.762 238.829,265.073 238.140 C 264.923 237.990,264.800 238.077,264.800 238.333 M175.478 240.595 C 175.844 241.362,176.214 241.919,176.301 241.832 C 176.484 241.649,175.270 239.200,174.996 239.200 C 174.895 239.200,175.112 239.828,175.478 240.595 M307.775 240.500 L 306.600 241.800 307.900 240.625 C 308.615 239.979,309.200 239.394,309.200 239.325 C 309.200 239.016,308.870 239.288,307.775 240.500 M319.701 240.600 C 319.705 241.480,319.787 241.793,319.883 241.295 C 319.979 240.798,319.975 240.078,319.875 239.695 C 319.775 239.313,319.696 239.720,319.701 240.600 M82.928 244.400 C 82.928 245.830,83.001 246.415,83.089 245.700 C 83.178 244.985,83.178 243.815,83.089 243.100 C 83.001 242.385,82.928 242.970,82.928 244.400 M97.900 243.096 C 99.275 243.174,101.525 243.174,102.900 243.096 C 104.275 243.018,103.150 242.954,100.400 242.954 C 97.650 242.954,96.525 243.018,97.900 243.096 M215.282 247.096 C 216.758 247.173,219.278 247.173,220.882 247.097 C 222.487 247.021,221.280 246.958,218.200 246.958 C 215.120 246.957,213.807 247.019,215.282 247.096 M300.124 249.800 C 300.126 251.120,300.201 251.612,300.290 250.893 C 300.379 250.174,300.377 249.094,300.286 248.493 C 300.195 247.892,300.122 248.480,300.124 249.800 M147.728 250.400 C 147.728 251.830,147.801 252.415,147.889 251.700 C 147.978 250.985,147.978 249.815,147.889 249.100 C 147.801 248.385,147.728 248.970,147.728 250.400 M203.800 249.600 C 203.459 250.260,203.269 250.800,203.379 250.800 C 203.489 250.800,203.859 250.260,204.200 249.600 C 204.541 248.940,204.731 248.400,204.621 248.400 C 204.511 248.400,204.141 248.940,203.800 249.600 M108.528 251.200 C 108.528 252.630,108.601 253.215,108.689 252.500 C 108.778 251.785,108.778 250.615,108.689 249.900 C 108.601 249.185,108.528 249.770,108.528 251.200 M100.093 252.000 C 100.093 252.770,100.175 253.085,100.276 252.700 C 100.376 252.315,100.376 251.685,100.276 251.300 C 100.175 250.915,100.093 251.230,100.093 252.000 M252.493 252.400 C 252.493 253.170,252.575 253.485,252.676 253.100 C 252.776 252.715,252.776 252.085,252.676 251.700 C 252.575 251.315,252.493 251.630,252.493 252.400 M84.800 252.125 C 84.800 252.194,85.385 252.779,86.100 253.425 L 87.400 254.600 86.225 253.300 C 85.130 252.088,84.800 251.816,84.800 252.125 M256.893 253.600 C 256.893 254.370,256.975 254.685,257.076 254.300 C 257.176 253.915,257.176 253.285,257.076 252.900 C 256.975 252.515,256.893 252.830,256.893 253.600 M154.175 254.100 L 153.000 255.400 154.300 254.225 C 155.512 253.130,155.784 252.800,155.475 252.800 C 155.406 252.800,154.821 253.385,154.175 254.100 M316.223 253.163 C 316.100 253.362,316.360 253.431,316.802 253.315 C 317.243 253.200,317.918 253.352,318.302 253.653 C 318.934 254.148,318.948 254.134,318.451 253.500 C 317.866 252.754,316.595 252.561,316.223 253.163 M226.574 254.842 C 226.423 255.086,226.904 255.851,227.641 256.542 L 228.982 257.800 227.847 256.533 C 227.223 255.835,226.833 255.070,226.980 254.833 C 227.127 254.595,227.157 254.400,227.047 254.400 C 226.937 254.400,226.724 254.599,226.574 254.842 M155.375 256.900 L 154.200 258.200 155.500 257.025 C 156.712 255.930,156.984 255.600,156.675 255.600 C 156.606 255.600,156.021 256.185,155.375 256.900 M164.880 258.080 C 163.797 259.163,164.350 259.602,166.700 259.526 L 169.000 259.452 166.900 259.305 C 164.749 259.155,164.439 258.921,165.280 258.080 C 165.544 257.816,165.670 257.600,165.560 257.600 C 165.450 257.600,165.144 257.816,164.880 258.080 M126.800 258.774 C 126.800 259.127,126.268 259.238,125.038 259.140 C 124.069 259.063,123.360 259.135,123.462 259.300 C 123.747 259.761,126.718 259.656,127.016 259.173 C 127.161 258.939,127.172 258.639,127.040 258.507 C 126.908 258.375,126.800 258.495,126.800 258.774 M289.701 258.800 C 289.879 259.462,293.464 259.895,294.036 259.324 C 294.215 259.146,293.447 259.064,292.330 259.142 C 290.941 259.239,290.179 259.113,289.919 258.742 C 289.612 258.304,289.570 258.315,289.701 258.800 M159.800 259.200 L 158.200 259.486 159.676 259.543 C 160.488 259.574,161.264 259.420,161.400 259.200 C 161.536 258.980,161.592 258.826,161.524 258.857 C 161.456 258.888,160.680 259.042,159.800 259.200 M183.600 259.200 L 181.400 259.470 183.476 259.535 C 184.618 259.571,185.664 259.420,185.800 259.200 C 185.936 258.980,185.992 258.829,185.924 258.865 C 185.856 258.901,184.810 259.052,183.600 259.200 M133.907 259.490 C 134.626 259.579,135.706 259.577,136.307 259.486 C 136.908 259.395,136.320 259.322,135.000 259.324 C 133.680 259.326,133.188 259.401,133.907 259.490 M91.305 259.887 C 91.914 259.979,92.814 259.977,93.305 259.882 C 93.797 259.787,93.300 259.711,92.200 259.714 C 91.100 259.717,90.697 259.795,91.305 259.887 M234.905 259.887 C 235.514 259.979,236.414 259.977,236.905 259.882 C 237.397 259.787,236.900 259.711,235.800 259.714 C 234.700 259.717,234.297 259.795,234.905 259.887 M256.705 259.883 C 257.202 259.979,257.922 259.975,258.305 259.875 C 258.687 259.775,258.280 259.696,257.400 259.701 C 256.520 259.705,256.207 259.787,256.705 259.883 M273.800 265.200 C 273.459 265.860,273.269 266.400,273.379 266.400 C 273.489 266.400,273.859 265.860,274.200 265.200 C 274.541 264.540,274.731 264.000,274.621 264.000 C 274.511 264.000,274.141 264.540,273.800 265.200 M194.817 266.579 C 194.553 266.898,193.496 267.226,192.468 267.307 L 190.600 267.456 192.438 267.528 C 193.830 267.582,194.452 267.406,195.000 266.800 C 195.398 266.360,195.628 266.000,195.511 266.000 C 195.394 266.000,195.082 266.261,194.817 266.579 M268.578 266.435 C 268.099 267.210,269.051 267.655,270.846 267.496 L 272.600 267.340 270.657 267.270 C 269.111 267.214,268.761 267.077,268.945 266.600 C 269.211 265.905,268.973 265.797,268.578 266.435 M273.600 272.800 L 199.000 273.003 273.476 273.102 C 322.802 273.167,348.036 273.065,348.200 272.800 C 348.336 272.580,348.392 272.444,348.324 272.498 C 348.256 272.553,314.630 272.688,273.600 272.800 M60.900 273.100 C 65.465 273.164,72.935 273.164,77.500 273.100 C 82.065 273.035,78.330 272.983,69.200 272.983 C 60.070 272.983,56.335 273.035,60.900 273.100 M86.489 273.137 C 86.117 273.373,86.250 273.585,86.974 273.916 C 87.523 274.165,88.069 274.212,88.188 274.019 C 88.307 273.826,88.179 273.574,87.902 273.459 C 87.626 273.344,97.615 273.283,110.100 273.325 C 122.585 273.366,132.800 273.265,132.800 273.100 C 132.800 272.692,87.132 272.728,86.489 273.137 M168.567 273.100 L 196.534 273.205 195.567 274.303 L 194.600 275.400 195.700 274.430 C 196.305 273.897,196.800 273.312,196.800 273.130 C 196.800 272.949,184.155 272.844,168.700 272.897 L 140.600 272.994 168.567 273.100 M114.900 276.276 C 115.285 276.376,115.915 276.376,116.300 276.276 C 116.685 276.175,116.370 276.093,115.600 276.093 C 114.830 276.093,114.515 276.175,114.900 276.276 M104.700 276.696 C 106.075 276.774,108.325 276.774,109.700 276.696 C 111.075 276.618,109.950 276.554,107.200 276.554 C 104.450 276.554,103.325 276.618,104.700 276.696 M106.307 277.890 C 107.026 277.979,108.106 277.977,108.707 277.886 C 109.308 277.795,108.720 277.722,107.400 277.724 C 106.080 277.726,105.588 277.801,106.307 277.890 M111.305 277.887 C 111.914 277.979,112.814 277.977,113.305 277.882 C 113.797 277.787,113.300 277.711,112.200 277.714 C 111.100 277.717,110.697 277.795,111.305 277.887 M182.276 285.213 C 182.014 285.587,181.625 285.903,181.410 285.916 C 181.196 285.929,180.950 286.151,180.864 286.409 C 180.746 286.763,180.914 286.767,181.554 286.425 C 182.019 286.176,182.400 285.788,182.400 285.562 C 182.400 285.337,182.560 285.251,182.755 285.372 C 182.950 285.493,183.307 285.353,183.548 285.062 C 183.880 284.663,183.836 284.533,183.370 284.533 C 183.030 284.533,182.538 284.839,182.276 285.213 M179.187 287.334 C 178.630 287.810,177.730 288.519,177.187 288.909 L 176.200 289.618 177.400 289.022 C 178.938 288.258,180.645 286.912,180.394 286.661 C 180.287 286.555,179.744 286.858,179.187 287.334 " stroke="none" fill="#f4a49c" fill-rule="evenodd"></path><path id="path4" d="M176.575 149.700 L 175.400 151.000 176.700 149.825 C 177.415 149.179,178.000 148.594,178.000 148.525 C 178.000 148.216,177.670 148.488,176.575 149.700 M259.911 157.093 C 260.851 157.178,262.291 157.177,263.111 157.091 C 263.930 157.005,263.160 156.936,261.400 156.937 C 259.640 156.939,258.970 157.009,259.911 157.093 M196.185 162.500 L 194.200 164.600 196.300 162.615 C 197.455 161.523,198.400 160.578,198.400 160.515 C 198.400 160.217,198.029 160.549,196.185 162.500 M138.505 224.687 C 139.114 224.779,140.014 224.777,140.505 224.682 C 140.997 224.587,140.500 224.511,139.400 224.514 C 138.300 224.517,137.897 224.595,138.505 224.687 M295.100 224.682 C 295.595 224.778,296.405 224.778,296.900 224.682 C 297.395 224.587,296.990 224.509,296.000 224.509 C 295.010 224.509,294.605 224.587,295.100 224.682 M97.300 246.687 C 97.905 246.778,98.895 246.778,99.500 246.687 C 100.105 246.595,99.610 246.520,98.400 246.520 C 97.190 246.520,96.695 246.595,97.300 246.687 " stroke="none" fill="#f4a494" fill-rule="evenodd"></path></g></svg>